<svg width="14" height="14" viewBox="0 0 14 14" fill="none" xmlns="http://www.w3.org/2000/svg">
<path d="M0.5 7.50623C0.5 8.57362 1.24894 9.5027 2.30497 9.65797C3.01699 9.76267 3.73663 9.84391 4.46309 9.90089C4.77428 9.9253 5.05886 10.0883 5.232 10.348L7 13L8.76797 10.348C8.94112 10.0883 9.2257 9.92534 9.5369 9.90093C10.2633 9.84396 10.983 9.76273 11.695 9.65805C12.751 9.50279 13.5 8.5737 13.5 7.5063V3.4937C13.5 2.42631 12.751 1.49722 11.695 1.34196C10.1627 1.11668 8.59507 1 7.00019 1C5.40517 1 3.83741 1.1167 2.30498 1.34202C1.24894 1.49729 0.5 2.42637 0.5 3.49376V7.50623Z" stroke="black" stroke-opacity="0.87" stroke-linecap="round" stroke-linejoin="round"/>
</svg>
