<svg width="14" height="14" viewBox="0 0 14 14" fill="none" xmlns="http://www.w3.org/2000/svg">
<path d="M6.65383 1.33247C6.78193 1.02448 7.21822 1.02448 7.34632 1.33247L8.76364 4.74011C8.81764 4.86994 8.93975 4.95866 9.07992 4.9699L12.7587 5.26483C13.0912 5.29148 13.2261 5.70642 12.9727 5.92342L10.1699 8.32439C10.0631 8.41587 10.0164 8.55941 10.049 8.6962L10.9054 12.2861C10.9828 12.6106 10.6298 12.867 10.3451 12.6931L7.19555 10.7694C7.07554 10.6961 6.92461 10.6961 6.80461 10.7694L3.65501 12.6931C3.37035 12.867 3.01738 12.6106 3.09478 12.2861L3.9511 8.6962C3.98373 8.55941 3.93709 8.41587 3.8303 8.32439L1.02742 5.92342C0.774089 5.70642 0.908911 5.29148 1.24141 5.26483L4.92024 4.9699C5.06041 4.95866 5.18251 4.86995 5.23652 4.74011L6.65383 1.33247Z" stroke="black" stroke-opacity="0.87" stroke-linecap="round" stroke-linejoin="round"/>
</svg>
